<?xml version="1.0" encoding="UTF-8"?>
<svg width="30px" height="24px" viewBox="0 0 30 24" version="1.1" xmlns="http://www.w3.org/2000/svg" xmlns:xlink="http://www.w3.org/1999/xlink">
    <title>log-in</title>
    <defs>
        <filter id="filter-1">
            <feColorMatrix in="SourceGraphic" type="matrix" values="0 0 0 0 1.000000 0 0 0 0 0.741176 0 0 0 0 0.203922 0 0 0 1.000000 0"></feColorMatrix>
        </filter>
    </defs>
    <g id="页面-1" stroke="none" stroke-width="1" fill="none" fill-rule="evenodd">
        <g id="log-in" transform="translate(-1028.000000, -19.000000)" filter="url(#filter-1)">
            <g transform="translate(1028.000000, 19.000000)">
                <path d="M17.4920623,0 C15.2352516,0 13.038787,0.622763285 11.1399845,1.80092754 C9.2935281,2.94662802 7.80432128,4.56494686 6.83333333,6.48085024 L8.68613476,7.38388406 C10.3601045,4.08083092 13.7343893,2.02898551 17.4920623,2.02898551 C22.911153,2.02898551 27.3198756,6.35241546 27.3198756,11.6666667 C27.3198756,16.9809179 22.911153,21.3043478 17.4920623,21.3043478 C13.7343893,21.3043478 10.3601045,19.2525024 8.68613476,15.9494493 L6.83333333,16.8524831 C7.80432128,18.7684541 9.2935281,20.3867053 11.1399845,21.5324058 C13.038787,22.71057 15.2352516,23.3333333 17.4920623,23.3333333 C24.052007,23.3333333 29.3888889,18.0997005 29.3888889,11.6666667 C29.3888889,5.23363285 24.052007,0 17.4920623,0 Z" id="路径" fill="#000000" fill-rule="nonzero"></path>
                <polygon id="路径" fill="#000000" fill-rule="nonzero" points="15.5037514 14.9313373 16.9531752 16.3333333 21.7777778 11.6666667 16.9531752 7 15.5037514 8.40199605 17.8538378 10.6752495 0 10.6752495 0 12.6580838 17.8538378 12.6580838"></polygon>
            </g>
        </g>
    </g>
</svg>