<?xml version="1.0" encoding="utf-8"?>
<!-- Generator: Adobe Illustrator 23.1.1, SVG Export Plug-In . SVG Version: 6.00 Build 0)  -->
<svg version="1.1" id="圖層_1" xmlns="http://www.w3.org/2000/svg" xmlns:xlink="http://www.w3.org/1999/xlink" x="0px" y="0px"
	 viewBox="0 0 20 20" style="enable-background:new 0 0 20 20;" xml:space="preserve">
<style type="text/css">
	.st0{fill:#9B9B9B;}
</style>
<title>lock - FontAwesome G</title>
<path id="lock---FontAwesome-Y" class="st0" d="M15.8,17.7c0.6,0,1.1-0.5,1.1-1.1v-6.4c0-0.6-0.5-1.1-1.1-1.1h-0.4V7
	c0-2.7-2.3-5-5-5c-2.7,0-5,2.3-5,5v2.1H5.1C4.5,9.1,4,9.6,4,10.2v6.4c0,0.6,0.5,1.1,1.1,1.1H15.8z M13.3,9.1H7.6V7
	c0-1.6,1.3-2.9,2.9-2.9c1.6,0,2.9,1.3,2.9,2.9V9.1z"/>
</svg>
