<?xml version="1.0" encoding="UTF-8"?>
<svg width="26px" height="26px" viewBox="0 0 26 26" version="1.1" xmlns="http://www.w3.org/2000/svg" xmlns:xlink="http://www.w3.org/1999/xlink">
    <title>reply</title>
    <defs>
        <filter id="filter-1">
            <feColorMatrix in="SourceGraphic" type="matrix" values="0 0 0 0 1.000000 0 0 0 0 0.741176 0 0 0 0 0.203922 0 0 0 1.000000 0"></feColorMatrix>
        </filter>
    </defs>
    <g id="页面-1" stroke="none" stroke-width="1" fill="none" fill-rule="evenodd">
        <g id="reply" transform="translate(-1168.000000, -18.000000)" filter="url(#filter-1)">
            <g transform="translate(1169.000000, 19.000000)">
                <path d="M23.5,24 C23.331,24 23.169,23.914 23.076,23.765 C21.603,21.407 19.063,20 16.284,20 L16,20 L16,22.5 C16,22.702 15.878,22.885 15.691,22.962 C15.504,23.039 15.29,22.997 15.146,22.854 L10.146,17.854 C9.951,17.659 9.951,17.342 10.146,17.147 L15.146,12.147 C15.289,12.003 15.504,11.961 15.691,12.039 C15.878,12.117 16,12.298 16,12.5 L16,15.015 C20.455,15.275 24,18.982 24,23.5 C24,23.723 23.852,23.919 23.638,23.98 C23.592,23.994 23.546,24 23.5,24 Z M15.5,19 L16.284,19 C18.79,19 21.122,20.017 22.803,21.786 C22.025,18.474 19.046,16 15.5,16 C15.224,16 15,15.776 15,15.5 L15,13.707 L11.207,17.5 L15,21.293 L15,19.5 C15,19.224 15.224,19 15.5,19 L15.5,19 Z" id="形状" stroke="#979797" stroke-width="0.5" fill="#000000" fill-rule="nonzero"></path>
                <path d="M9.5,21 L2.5,21 C1.122,21 0,19.879 0,18.5 L0,5.5 C0,4.121 1.122,3 2.5,3 L4.5,3 C4.776,3 5,3.224 5,3.5 C5,3.776 4.776,4 4.5,4 L2.5,4 C1.673,4 1,4.673 1,5.5 L1,18.5 C1,19.327 1.673,20 2.5,20 L9.5,20 C9.776,20 10,20.224 10,20.5 C10,20.776 9.776,21 9.5,21 Z" id="路径" stroke="#979797" fill="#000000" fill-rule="nonzero"></path>
                <path d="M11.5,6 L5.5,6 C4.673,6 4,5.327 4,4.5 L4,2.5 C4,2.224 4.224,2 4.5,2 L6.05,2 C6.283,0.86 7.292,0 8.5,0 C9.708,0 10.717,0.86 10.95,2 L12.5,2 C12.776,2 13,2.224 13,2.5 L13,4.5 C13,5.327 12.327,6 11.5,6 Z M5,3 L5,4.5 C5,4.775 5.224,5 5.5,5 L11.5,5 C11.776,5 12,4.775 12,4.5 L12,3 L10.5,3 C10.224,3 10,2.776 10,2.5 C10,1.673 9.327,1 8.5,1 C7.673,1 7,1.673 7,2.5 C7,2.776 6.776,3 6.5,3 L5,3 Z" id="形状" stroke="#979797" fill="#000000" fill-rule="nonzero"></path>
                <path d="M13.5,9 L3.5,9 C3.224,9 3,8.776 3,8.5 C3,8.224 3.224,8 3.5,8 L13.5,8 C13.776,8 14,8.224 14,8.5 C14,8.776 13.776,9 13.5,9 Z" id="路径" fill="#000000" fill-rule="nonzero"></path>
                <path d="M12.5,12 L3.5,12 C3.224,12 3,11.776 3,11.5 C3,11.224 3.224,11 3.5,11 L12.5,11 C12.776,11 13,11.224 13,11.5 C13,11.776 12.776,12 12.5,12 Z" id="路径" fill="#000000" fill-rule="nonzero"></path>
                <path d="M9.5,15 L3.5,15 C3.224,15 3,14.776 3,14.5 C3,14.224 3.224,14 3.5,14 L9.5,14 C9.776,14 10,14.224 10,14.5 C10,14.776 9.776,15 9.5,15 Z" id="路径" fill="#000000" fill-rule="nonzero"></path>
                <path d="M16.5,10 C16.224,10 16,9.776 16,9.5 L16,5.5 C16,4.673 15.327,4 14.5,4 L12.5,4 C12.224,4 12,3.776 12,3.5 C12,3.224 12.224,3 12.5,3 L14.5,3 C15.878,3 17,4.121 17,5.5 L17,9.5 C17,9.776 16.776,10 16.5,10 Z" id="路径" stroke="#979797" fill="#000000" fill-rule="nonzero"></path>
            </g>
        </g>
    </g>
</svg>